# xmcd
#
# Track frame offsets: 
#        150
#        17193
#        34176
#        52304
#        72751
#        89573
#        107038
#        126496
#        144684
#        164239
#        178076
#        195413
#        214870
#        228592
#
# Disc length: 3236 seconds
#
# Revision: 0
# Processed by: cddbd v1.5.2PL0 Copyright (c) Steve Scherf et al.
# Submitted via: ExactAudioCopyFreeDBPlugin 1.0
#
DISCID=dd0ca20e
DTITLE=Jim Quick - Down South
DYEAR=2010
DGENRE=Blues
TTITLE0=Living On Love 
TTITLE1=Rewind
TTITLE2=Stronger Than You Need To Be 
TTITLE3=Down South
TTITLE4=I'm A Dog
TTITLE5=Deal With It
TTITLE6=No Good Place To Cry 
TTITLE7=Forever Man 
TTITLE8=Stongest Weakness
TTITLE9=Brilliant Conversationalist 
TTITLE10=It's Too Late
TTITLE11=Hurt That Bad 
TTITLE12=It's Always Something 
TTITLE13=Don't Shoot The Snake
EXTD=
EXTT0=
EXTT1=
EXTT2=
EXTT3=
EXTT4=
EXTT5=
EXTT6=
EXTT7=
EXTT8=
EXTT9=
EXTT10=
EXTT11=
EXTT12=
EXTT13=
PLAYORDER=
